<svg xmlns="http://www.w3.org/2000/svg" width="279" height="314"><path fill="#2b2628" d="m57.44 314-3-1c-.77-4.79-1.12-9.37-1.11-14.22v-2.07c0-2.24 0-4.47.01-6.71 0-1.56.01-3.11.01-4.67 0-4.09.01-8.17.02-12.26.01-4.18.02-8.35.02-12.53.01-8.18.03-16.36.05-24.54l4-2 9.75 6.81c.92.65 1.84 1.29 2.79 1.95.89.62 1.78 1.24 2.69 1.88.82.58 1.64 1.15 2.48 1.73 1.52 1.08 3.01 2.2 4.46 3.36 1.74 1.51 1.74 1.51 3.83 1.02.66-.25 1.32-.49 2-.75 1.33-.33 2.67-.67 4-1v-2c5.41-4 5.41-4 8-4l1-3c1.65-.99 3.32-1.98 5.02-2.88 2.05-1.16 3.9-2.46 5.79-3.87 3.19-2.25 3.19-2.25 5.19-2.25v-2c2.4-1.79 4.81-3.47 7.31-5.12 1.49-1.01 2.98-2.01 4.46-3.02.73-.49 1.46-.98 2.21-1.49 2.53-1.72 5-3.5 7.46-5.31 5.3-3.89 10.67-7.69 16.06-11.47 3.56-2.51 7.11-5.02 10.63-7.58.97-.7.97-.7 1.95-1.41 1.21-.88 2.42-1.77 3.63-2.65 4.07-2.95 4.07-2.95 6.29-2.95v-2c2.4-1.79 4.81-3.47 7.31-5.12 1.49-1 2.97-2 4.45-3 .73-.5 1.46-.99 2.21-1.49 3.49-2.38 6.88-4.9 10.28-7.41 2.09-1.5 4.18-2.96 6.31-4.4.91-.61.91-.61 1.83-1.24 1.18-.8 2.36-1.59 3.55-2.37 1.39-.94 2.73-1.95 4.06-2.97v-2c-1.95-1.55-3.89-2.97-5.94-4.38-.62-.43-1.24-.86-1.88-1.31-1.34-.94-2.69-1.88-4.04-2.82-2.19-1.52-4.36-3.06-6.54-4.61-9.98-7.1-9.98-7.1-20.23-13.79-.45-.36-.9-.72-1.37-1.09v-2c-.72-.25-1.43-.5-2.17-.75-3.13-1.38-5.44-3.08-8.14-5.19-4.73-3.64-9.56-7.08-14.5-10.44a503.46 503.46 0 0 1-17.79-12.69c-4.97-3.67-10.08-7.06-15.3-10.37-.69-.52-1.39-1.03-2.1-1.56v-2c-1.08-.38-1.08-.38-2.18-.78-2.99-1.29-5.37-2.87-8.01-4.78-3.29-2.41-3.29-2.41-6.81-4.44v-2c-.76-.29-1.53-.58-2.31-.88C92.44 69 92.44 69 89.44 67v-2c-3.26-1.6-3.26-1.6-6.8-1.8-3.05 1.11-5.46 2.79-8.14 4.61-1.02.69-2.04 1.38-3.09 2.08-2.74 1.95-5.35 4.01-7.97 6.11-2.29 1.53-4.53 2.74-7 4l-2-1c-.9-26.01-1.13-51.98-1-78 2.29-.63 2.29-.63 5-1 2.61 1.57 4.83 3.12 7.19 5 1.34 1.03 2.69 2.06 4.04 3.09.65.51 1.3 1.01 1.97 1.53 2.22 1.7 4.5 3.3 6.8 4.88 4.22 2.93 8.36 5.95 12.5 9 4.99 3.68 10.02 7.29 15.11 10.83 4.51 3.16 8.94 6.42 13.39 9.67l5.5 4c2.76 2.01 5.53 4.02 8.29 6.04 4.41 3.22 8.84 6.41 13.33 9.52 4.05 2.81 7.93 5.78 11.77 8.86 2.29 1.71 4.66 3.12 7.11 4.58 1.76 1.25 3.51 2.52 5.25 3.81 4.29 3.16 8.65 6.13 13.17 8.96.52.41 1.04.81 1.58 1.23v2c.59.12 1.18.24 1.79.36 2.3.67 3.64 1.47 5.53 2.9.61.46 1.23.91 1.86 1.39.64.48 1.28.97 1.94 1.47 1.34 1.01 2.68 2.01 4.02 3 .99.74.99.74 1.99 1.49 6.67 5.1 6.67 5.1 13.87 9.39v2c.72.26 1.44.52 2.18.79 2.95 1.27 5.33 2.79 7.94 4.65.85.59 1.7 1.19 2.58 1.81 1.95 1.48 3.57 3.02 5.3 4.75 1.6.89 3.21 1.77 4.81 2.66 2.68 1.64 5.13 3.5 7.63 5.4 4.91 3.74 9.91 7.32 15 10.82 1.01.69 1.01.69 2.04 1.4 2.78 1.9 5.52 3.72 8.46 5.38 2.06 1.34 2.06 1.34 2.62 3.84-.56 2.5-.56 2.5-2.44 4.31-2.12 1.19-2.12 1.19-4.12 1.19v2c-1.37 1.09-1.37 1.09-3.44 2.38-4.86 3.13-9.59 6.41-14.31 9.74-.73.52-1.47 1.03-2.22 1.57-3.03 2.13-5.98 4.27-8.86 6.61-2.17 1.7-2.17 1.7-5.17 2.7l-1.81 1.81c-2.52 2.52-5.19 4.27-8.19 6.19-1.07.74-2.15 1.48-3.25 2.25-2.75 1.75-2.75 1.75-4.75 1.75v2c-1.37 1.09-1.37 1.09-3.44 2.38-4.92 3.17-9.71 6.5-14.5 9.87-.76.53-1.51 1.06-2.29 1.61-.72.51-1.44 1.01-2.17 1.53-.65.45-1.29.91-1.96 1.38-1.77 1.27-1.77 1.27-3.64 3.23h-3v2a148.64 148.64 0 0 1-7.19 5c-5.38 3.61-10.64 7.31-15.75 11.31-4.04 3.16-8.13 6.15-12.43 8.94-9.54 6.34-18.82 13.11-28.07 19.87-3.67 2.69-7.36 5.36-11.05 8.02-1.75 1.29-3.45 2.64-5.13 4.03-2.38 1.83-2.38 1.83-5.63 2.89-1.36.47-1.36.47-2.75.94l-1 3c-1.86 1.46-1.86 1.46-4.19 2.94-.81.51-1.62 1.03-2.45 1.56-.78.5-1.56.99-2.36 1.5-1.15.79-2.29 1.58-3.44 2.38-2.56 1.62-2.56 1.62-4.56 1.62v2c-1.58 1.23-1.58 1.23-3.81 2.62-4.78 3.07-9.34 6.37-13.9 9.74-2.29 1.64-2.29 1.64-4.29 2.64Z"/><path fill="#2a2527" d="M80.44 216c-2.48-1.48-4.62-2.92-6.88-4.69-1.22-.92-2.45-1.84-3.68-2.76-.88-.66-.88-.66-1.78-1.34-2.11-1.54-4.29-2.89-6.54-4.21-1.54-.99-1.54-.99-3.12-2v-2c-1.08-.39-1.08-.39-2.18-.79-2.95-1.27-5.33-2.79-7.94-4.65-1.28-.89-1.28-.89-2.58-1.81-2.3-1.75-2.3-1.75-3.67-3.22-2.02-1.9-4.32-3.08-6.73-4.42-3.21-1.87-6.12-4.13-9.09-6.36-5.69-4.24-11.46-8.25-17.42-12.09C6.44 164 6.44 164 4.8 162.34c-1.43-1.61-1.43-1.61-4.36-2.34v-6h3v-2c2.03-1.52 2.03-1.52 4.94-3.38 5.41-3.51 10.72-7.14 16-10.87.72-.51 1.44-1.01 2.18-1.54 2.92-2.06 5.79-4.13 8.57-6.38 2.34-1.86 4.75-3.3 7.31-4.83 3.07-2.14 6.08-4.37 9.09-6.59 4.69-3.41 4.69-3.41 6.91-3.41v-2c1.51-1.19 1.51-1.19 3.69-2.56 2.93-1.87 5.8-3.77 8.59-5.83.56-.41 1.13-.82 1.71-1.25 1.64-1.19 3.27-2.4 4.9-3.6 3.47-1.96 5.2-2.34 9.11-1.76 2.12 1.14 2.12 1.14 4 2.69 1.02.82 1.02.82 2.06 1.66 1.18 1 2.36 2.01 3.54 3.02 2.96 2.54 5.9 4.49 9.31 6.36 3.79 2.31 7.25 5.09 10.78 7.77 3.41 2.59 6.88 5.08 10.37 7.56 4.92 3.49 9.8 7.03 14.66 10.6 2.75 1.99 5.56 3.9 8.37 5.81l2.76 1.88c1.83 1.25 3.67 2.5 5.51 3.73 1.26.86 1.26.86 2.55 1.75.77.51 1.53 1.03 2.32 1.56 2.03 1.85 2.56 2.88 2.77 5.61-2.87 3.67-6.84 6.16-10.62 8.81-.63.44-1.25.88-1.89 1.33-4.34 3.07-8.71 6.11-13.07 9.15-5.42 3.82-10.76 7.76-16.1 11.68-5.86 4.28-11.79 8.42-17.77 12.51-2.64 1.84-5.19 3.77-7.72 5.76-.71.55-1.42 1.1-2.15 1.67-1.38 1.08-2.76 2.17-4.12 3.28-3.88 3.02-6.47 4.9-11.56 3.81zm6.62-44c1.12-.66 2.23-1.32 3.38-2v-2c.72-.26 1.44-.51 2.18-.78 2.99-1.29 5.37-2.87 8.01-4.78 4.66-3.37 4.66-3.37 6.81-4.44v-2c-2.07-1.51-2.07-1.51-4.75-3.06-5.56-3.41-10.56-7.22-15.62-11.32-2.41-1.82-2.41-1.82-4.73-1.55-2.18 1.07-3.94 2.3-5.84 3.81-2.93 2.27-5.88 4.21-9.06 6.12-2.7 1.96-5.35 3.97-8 6 1.81 4.14 4.09 5.72 8 8h2v2c1.64 1.04 3.31 2.03 5 3 1.83 1.31 3.65 2.66 5.45 4.01 2.89 1.84 4.47.59 7.17-1.01z"/></svg>